<svg xmlns="http://www.w3.org/2000/svg" width="28" height="28" viewBox="0 0 28 28" fill="none">
      <path d="M22.33 15.0967C22.3766 14.7233 22.3766 14.35 22.33 13.9767L24.71 12.1333C24.9333 11.9567 24.99 11.6533 24.85 11.4067L22.5566 7.31C22.4166 7.05167 22.1366 6.95667 21.8783 7.05167L19.0783 8.16333C18.5183 7.75333 17.9116 7.42167 17.2583 7.16333L16.8383 4.17167C16.7916 3.89167 16.5583 3.69167 16.2783 3.69167H11.6916C11.4116 3.69167 11.1783 3.89167 11.1316 4.17167L10.7116 7.16333C10.0583 7.42167 9.45163 7.75333 8.89163 8.16333L6.09163 7.05167C5.83329 6.95667 5.55329 7.05167 5.41329 7.31L3.11996 11.4067C2.97996 11.6533 3.03662 11.9567 3.25996 12.1333L5.63996 13.9767C5.59329 14.35 5.59329 14.7233 5.63996 15.0967L3.25996 16.94C3.03662 17.1167 2.97996 17.42 3.11996 17.6667L5.41329 21.7633C5.55329 22.0217 5.83329 22.1167 6.09163 22.0217L8.89163 20.91C9.45163 21.32 10.0583 21.6517 10.7116 21.91L11.1316 24.9017C11.1783 25.1817 11.4116 25.3817 11.6916 25.3817H16.2783C16.5583 25.3817 16.7916 25.1817 16.8383 24.9017L17.2583 21.91C17.9116 21.6517 18.5183 21.32 19.0783 20.91L21.8783 22.0217C22.1366 22.1167 22.4166 22.0217 22.5566 21.7633L24.85 17.6667C24.99 17.42 24.9333 17.1167 24.71 16.94L22.33 15.0967ZM14 18.6667C11.55 18.6667 9.56663 16.6833 9.56663 14.2333C9.56663 11.7833 11.55 9.8 14 9.8C16.45 9.8 18.4333 11.7833 18.4333 14.2333C18.4333 16.6833 16.45 18.6667 14 18.6667Z" fill="#CAD1E6" fill-opacity="0.3"/>
    </svg>