<svg xmlns="http://www.w3.org/2000/svg" width="28" height="28" viewBox="0 0 28 28" fill="none">
      <path d="M14 25.6666C15.2833 25.6666 16.3333 24.6166 16.3333 23.3333H11.6666C11.6666 24.6166 12.7166 25.6666 14 25.6666ZM21 18.6666V13.9999C21 10.4166 19.1333 7.44994 15.75 6.63327V5.83327C15.75 4.86661 14.9666 4.08327 14 4.08327C13.0333 4.08327 12.25 4.86661 12.25 5.83327V6.63327C8.87997 7.44994 6.99997 10.4166 6.99997 13.9999V18.6666L4.66663 20.9999V22.1666H23.3333V20.9999L21 18.6666ZM18.6666 19.8333H9.33331V13.9999C9.33331 11.1999 11.1833 8.91661 14 8.91661C16.8166 8.91661 18.6666 11.1999 18.6666 13.9999V19.8333Z" fill="#CAD1E6"/>
    </svg>