<svg xmlns="http://www.w3.org/2000/svg" width="48" height="48" viewBox="0 0 48 48" fill="none">
      <circle cx="24" cy="24" r="24" fill="url(#paint0_linear_1003_213)"/>
      <path d="M27.2 15.2C27.2 16.9673 25.7673 18.4 24 18.4C22.2327 18.4 20.8 16.9673 20.8 15.2C20.8 13.4327 22.2327 12 24 12C25.7673 12 27.2 13.4327 27.2 15.2Z" fill="#00D36C"/>
      <path d="M15.2 23.9999C15.2 25.7672 13.7673 27.1999 12 27.1999C10.2327 27.1999 8.8 25.7672 8.8 23.9999C8.8 22.2326 10.2327 20.7999 12 20.7999C13.7673 20.7999 15.2 22.2326 15.2 23.9999Z" fill="#00D36C"/>
      <path d="M20.8 32.8C20.8 34.5673 19.3673 36 17.6 36C15.8327 36 14.4 34.5673 14.4 32.8C14.4 31.0327 15.8327 29.6 17.6 29.6C19.3673 29.6 20.8 31.0327 20.8 32.8Z" fill="#00B556"/>
      <path d="M33.6 32.8C33.6 34.5673 32.1673 36 30.4 36C28.6327 36 27.2 34.5673 27.2 32.8C27.2 31.0327 28.6327 29.6 30.4 29.6C32.1673 29.6 33.6 31.0327 33.6 32.8Z" fill="#0E964B"/>
      <path d="M36 20.7999C34.2327 20.7999 32.8 22.2326 32.8 23.9999C32.8 25.7672 34.2327 27.1999 36 27.1999C37.7673 27.1999 39.2 25.7672 39.2 23.9999C39.2 22.2326 37.7673 20.7999 36 20.7999Z" fill="#00D36C"/>
      <defs>
        <linearGradient id="paint0_linear_1003_213" x1="24" y1="0" x2="24" y2="48" gradientUnits="userSpaceOnUse">
          <stop stop-color="#093DCE"/>
          <stop offset="1" stop-color="#07102E"/>
        </linearGradient>
      </defs>
    </svg>